<?xml version="1.0" encoding="utf-8"?>
<!-- Generator: Adobe Illustrator 23.0.1, SVG Export Plug-In . SVG Version: 6.00 Build 0)  -->
<svg version="1.1" id="Layer_1" xmlns="http://www.w3.org/2000/svg" xmlns:xlink="http://www.w3.org/1999/xlink" x="0px" y="0px"
	 viewBox="0 0 470 470" style="enable-background:new 0 0 470 470;" xml:space="preserve">
<style type="text/css">
	.st0{fill:#FFFFFF;}
</style>
<path class="st0" d="M110.9,451.6c-3,0-5.5-2.5-5.5-5.5c0-3,2.5-5.5,5.5-5.5h72.7v-61.4H17.8c-8.7,0-15.8-7.1-15.8-15.8V34.2
	c0-8.7,7.1-15.8,15.8-15.8h434.3c8.7,0,15.8,7.1,15.8,15.8v329.2c0,8.7-7.1,15.8-15.8,15.8H286.4v61.4h72.7c3,0,5.5,2.5,5.5,5.5
	c0,3-2.5,5.5-5.5,5.5H110.9z M194.6,440.6h80.7v-61.4h-80.7V440.6z M17.8,29.4c-2.6,0-4.8,2.2-4.8,4.8v329.2c0,2.6,2.2,4.8,4.8,4.8
	h434.3c2.6,0,4.8-2.2,4.8-4.8V34.2c0-2.6-2.2-4.8-4.8-4.8H17.8z"/>
<path class="st0" d="M38.5,318.2c-3,0-5.5-2.5-5.5-5.5s2.5-5.5,5.5-5.5h393c3,0,5.5,2.5,5.5,5.5s-2.5,5.5-5.5,5.5H38.5z"/>
<path class="st0" d="M110,278.2c-3,0-5.5-2.5-5.5-5.5V163.9c0-3,2.5-5.5,5.5-5.5h40c3,0,5.5,2.5,5.5,5.5v108.8c0,3-2.5,5.5-5.5,5.5
	H110z M115.5,267.2h29v-97.8h-29V267.2z"/>
<path class="st0" d="M180,278.2c-3,0-5.5-2.5-5.5-5.5V128.4c0-3,2.5-5.5,5.5-5.5h40c3,0,5.5,2.5,5.5,5.5v144.3c0,3-2.5,5.5-5.5,5.5
	H180z M185.5,267.2h29V133.9h-29V267.2z"/>
<path class="st0" d="M250,278.2c-3,0-5.5-2.5-5.5-5.5V94.9c0-3,2.5-5.5,5.5-5.5h40c3,0,5.5,2.5,5.5,5.5v177.8c0,3-2.5,5.5-5.5,5.5
	H250z M255.5,267.2h29V100.4h-29V267.2z"/>
<path class="st0" d="M320,278.2c-3,0-5.5-2.5-5.5-5.5v-74.3c0-3,2.5-5.5,5.5-5.5h40c3,0,5.5,2.5,5.5,5.5v74.3c0,3-2.5,5.5-5.5,5.5
	H320z M325.5,267.2h29v-63.3h-29V267.2z"/>
</svg>
