<?xml version="1.0" encoding="utf-8"?>
<!-- Generator: Adobe Illustrator 23.0.1, SVG Export Plug-In . SVG Version: 6.00 Build 0)  -->
<svg version="1.1" id="Capa_1" xmlns="http://www.w3.org/2000/svg" xmlns:xlink="http://www.w3.org/1999/xlink" x="0px" y="0px"
	 viewBox="0 0 512 512" style="enable-background:new 0 0 512 512;" xml:space="preserve">
<path fill="#fff" d="M389,368.4l-49.5-16.5L320,312.7l2.5-2.5c14.8-15.1,24.9-34.7,28.3-55.3l2.8-16.9H376c13.8,0,25-11.2,25-25v-63
	C401,70,336,5,256,5c-38.8,0-75.2,15.1-102.6,42.4C126.1,74.8,111,111.2,111,150v63c0,10.6,6.7,20,16.7,23.6l3.3,1.2V253
	c0,13.8,11.2,25,25,25h12l1.3,2.9c4.2,9,9.5,17.4,16,24.8c1.3,1.5,2.7,2.9,4.2,4.5l2.5,2.5l-19.6,39.2L123,368.4
	c-53.3,17.8-92,74-92,133.6c0,2.8,2.2,5,5,5h440c2.8,0,5-2.2,5-5C481,442.4,442.3,386.2,389,368.4z M330.6,356.3l-0.7,2
	c-6.2,18-13.9,35.7-22.7,52.6l-3.2,6l-42.2-42.2l51-53.9L330.6,356.3z M254.8,367.7l-35.1-35.1l16.5,3.5c6.5,1.4,13.2,2.1,19.8,2.1
	c5.1,0,10.4-0.4,15.5-1.3l14.6-2.4L254.8,367.7z M350.9,149.9v5.8l-18.2-2.6c-35-5-68.1-21.5-93.2-46.6c-0.9-0.9-2.2-1.5-3.5-1.5
	c-25.1,0-49.7,11.6-65.7,31.1l-10.5,12.8l1.7-16.5C166,88.3,202.8,55,247,55H265c23,0,44.6,9,60.9,25.4c16.2,16.3,25.2,38,25.2,61
	C351,144.6,351,147.4,350.9,149.9z M391,213c0,8.3-6.7,15-15,15h-20.9l0.7-5.6c2.5-19.5,4.2-40.6,4.9-60.8l0.2-6.6H391V213z
	 M121.4,139.6C126.7,69.7,185.8,15,256,15c70.1,0,129.3,54.7,134.6,124.6l0.4,5.4h-30l-0.1-4.9c-0.3-25.4-10.5-49.3-28.6-67.2
	C314.3,54.9,290.4,45,265,45h-17.9c-25.4,0-49.4,9.9-67.5,27.8c-18.1,17.9-28.2,41.8-28.6,67.2L151,145h-30L121.4,139.6z M136,228
	c-8.3,0-15-6.7-15-15v-58h30.1l0.2,4.8c0,1,0.1,3.3,0.1,3.3c0.7,19.6,2.4,40.1,4.8,59.2l0.7,5.6L136,228z M156,268
	c-8.3,0-15-6.7-15-15v-15h17.4l2.8,16.9c0.4,2.2,0.8,4.6,1.4,6.9l1.5,6.2H156z M183,285.6l-4.5-7.6h32.7l1.2,3.3
	c3.5,10,13,16.7,23.6,16.7h20c13.8,0,25-11.2,25-25s-11.2-25-25-25h-20c-10.6,0-20.1,6.7-23.6,16.7l-1.2,3.3h-36.4l-1.1-3.6
	c-5.4-17.8-11-67.5-12.2-98.3l-0.1-1.8L176,145c13.3-17.7,33.6-28.6,55.8-29.9l2.2-0.1l1.6,1.5c26.1,24.9,60.2,41.4,95.8,46.5
	l19.2,2.7l-0.2,4.5c-1,21-3,42.3-5.9,61.6c-0.6,4.4-1.2,7.6-2.1,13c-0.4,2.3-0.8,5-1.4,8.4c-5.9,35.2-31.6,64.2-64,72.3
	c-6.8,1.7-13.8,2.6-20.9,2.6s-14.1-0.9-20.9-2.6C214.1,320.4,195.1,305.8,183,285.6z M221,273c0-8.3,6.7-15,15-15h20
	c8.3,0,15,6.7,15,15s-6.7,15-15,15h-20C227.7,288,221,281.3,221,273z M197.4,324.4l50.5,50.5L208,417.2l-3.2-6.2
	c-8.8-16.9-16.5-34.6-22.7-52.6l-0.7-2L197.4,324.4z M41,497l0.4-5.4c4.1-51.7,39-98.5,84.7-113.7l46.7-15.6l1.7,4.6
	c7.6,21,17.1,41.6,28.1,61l0.1,0.1c8.1,14.2,17.2,28.1,27,41.3l0.1,0.2L247,497H41z M256,492.5L238.2,464c-0.1-0.1-0.2-0.3-0.2-0.4
	c-8.2-10.9-15.8-22.4-22.8-34.1l-1.9-3.2l41.8-44.2l44,44l-2,3.3c-7,11.8-14.8,23.4-22.9,34.2l-0.1,0.1c-0.1,0.2-0.9,1.4-2.8,4.5
	c-2,3.1-5.3,8.5-10.9,17.5L256,492.5z M265,497l17.2-27.6l0.1-0.2c9.9-13.2,19.1-27.2,27.2-41.7l0.1-0.1l0.1-0.1
	c10.9-19.2,20.3-39.6,27.8-60.4l1.7-4.6l46.7,15.6c45.7,15.3,80.6,62,84.7,113.7l0.4,5.4H265z"/>
</svg>
